<?xml version="1.0" encoding="UTF-8" standalone="no"?>
<svg
   xmlns:svg="http://www.w3.org/2000/svg"
   xmlns="http://www.w3.org/2000/svg"
   width="500.0"
   height="384.8033905932739"

>
    <g transform="scale(33.145630368119406, -33.145630368119406)   translate(7.467047609329943,-4.88103018739981)" stroke-width="0.05"  fill="none">
       <!-- hidden lines -->
       <g  stroke="rgb(0,0,255)" fill="none" stroke-dasharray="0.05,0.05" >
			<path d="M0.0,2.857738033247042 L-7.850462293418876e-17,3.674234614174768 " />
			<path d="M-5.656854249492381,-0.40824829046386335 L8.881784197001252e-16,2.857738033247043 " />
			<path d="M1.5207268628095925,2.796242550567755 L2.7507233486556473,2.086103748362241 " />
			<path d="M2.7507233486556473,0.8014155963151034 L1.1795618648127493,1.2636114844409496 " />
			<path d="M1.179561864812749,1.2636114844409496 L-0.06731894851961173,0.5437245112161315 " />
			<path d="M0.0,2.857738033247042 L5.6568542494923815,-0.4082482904638636 " />
			<path d="M1.179561864812749,1.2636114844409496 L1.1795618648127488,2.896604646296402 " />

       </g>

       <!-- solid lines -->
       <g  stroke="rgb(0,0,0)" fill="none">
			<path d="M-5.656854249492381,-0.40824829046386335 L-5.656854249492381,0.4082482904638628 " />
			<path d="M-5.656854249492381,0.40824829046386246 L8.881784197001252e-16,3.674234614174769 " />
			<path d="M-5.656854249492381,-0.40824829046386335 L8.881784197001252e-16,-3.674234614174769 " />
			<path d="M0.0,-3.674234614174768 L-7.850462293418876e-17,-2.857738033247042 " />
			<path d="M-5.656854249492381,0.40824829046386246 L8.881784197001252e-16,-2.857738033247043 " />
			<path d="M0.0,3.674234614174768 L1.5207268628095925,2.796242550567755 " />
			<path d="M2.7507233486556473,2.086103748362241 L5.6568542494923815,0.4082482904638627 " />
			<path d="M0.0,-2.857738033247042 L5.6568542494923815,0.40824829046386446 " />
			<path d="M2.4748737341529163,-0.2041241452319314 L2.750723348655647,0.8014155963151035 " />
			<path d="M-0.06731894851961155,0.5437245112161317 L0.7332278127637747,-0.36338599442093766 " />
			<path d="M0.7332278127637746,-0.36338599442093744 L2.4748737341529163,-0.20412414523193148 " />
			<path d="M5.656854249492381,-0.40824829046386246 L5.656854249492381,0.4082482904638637 " />
			<path d="M0.0,-3.674234614174768 L5.6568542494923815,-0.4082482904638618 " />
			<path d="M2.4748737341529163,-0.2041241452319314 L2.4748737341529163,1.428869016623521 " />
			<path d="M2.7507233486556473,0.8014155963151034 L2.7507233486556473,2.4344087581705556 " />
			<path d="M2.4748737341529163,1.4288690166235205 L2.750723348655647,2.434408758170555 " />
			<path d="M2.750723348655647,2.4344087581705556 L1.1795618648127488,2.8966046462964017 " />
			<path d="M-0.06731894851961155,0.5437245112161317 L-0.0673189485196117,2.1767176730715843 " />
			<path d="M1.179561864812749,2.8966046462964017 L-0.06731894851961173,2.1767176730715834 " />
			<path d="M0.7332278127637746,-0.36338599442093744 L0.7332278127637745,1.2696071674345148 " />
			<path d="M-0.0673189485196117,2.176717673071584 L0.7332278127637745,1.2696071674345144 " />
			<path d="M0.7332278127637744,1.2696071674345146 L2.474873734152916,1.4288690166235205 " />

       </g>
    </g>
    
</svg>
