<?xml version="1.0" encoding="UTF-8" standalone="no"?>
<svg
   xmlns:svg="http://www.w3.org/2000/svg"
   xmlns="http://www.w3.org/2000/svg"
   width="500.0"
   height="481.6941738241592"

>
    <g transform="scale(29.497623448517373, -29.497623448517373)   translate(7.690916420796413,-7.655189173160017)" stroke-width="0.05"  fill="none">
       <!-- hidden lines -->
       <g  stroke="rgb(0,0,255)" fill="none" stroke-dasharray="0.05,0.05" >
			<path d="M-0.5045453229435579,-3.382935236154938 L-0.5045453229435581,-0.40824829046386313 " />
			<path d="M-0.5045453229435577,-0.4082482904638627 L0.2025614582429902,6.661338147750939e-16 " />
			<path d="M0.20256145824299,-5.131804407364171 L0.2025614582429895,0.0 " />
			<path d="M-0.5045453229435577,-5.540052697828034 L0.20256145824299,-5.131804407364171 " />
			<path d="M0.2025614582429897,-3.5572857017307347 L0.20256145824298943,-0.8164965809277254 " />
			<path d="M0.20256145824299,-0.8164965809277265 L-0.5045453229435577,-0.40824829046386324 " />
			<path d="M-5.656854249492381,-0.40824829046386335 L8.881784197001252e-16,2.857738033247043 " />
			<path d="M0.0,2.857738033247042 L5.6568542494923815,-0.4082482904638636 " />
			<path d="M0.20256145824298977,-0.8164965809277256 L0.9096682394295377,-0.40824829046386224 " />
			<path d="M0.9096682394295375,-0.40824829046386335 L0.20256145824298977,-1.1102230246251565e-16 " />
			<path d="M0.9096682394295373,-3.1490374112668715 L0.9096682394295371,-0.40824829046386224 " />
			<path d="M0.20256145824299,-5.131804407364171 L0.9096682394295377,-5.540052697828034 " />
			<path d="M-0.5045453229435575,3.382935236154939 L8.881784197001252e-16,3.674234614174769 " />
			<path d="M0.0,2.857738033247042 L-7.850462293418876e-17,3.674234614174768 " />
			<path d="M0.0,3.674234614174768 L0.9096682394295368,3.149037411266872 " />
			<path d="M1.5207268628095925,2.796242550567755 L2.7507233486556473,2.086103748362241 " />
			<path d="M2.7507233486556473,0.8014155963151034 L1.1795618648127493,1.2636114844409496 " />
			<path d="M1.179561864812749,1.2636114844409496 L0.30384879667478937,0.7580183088186254 " />
			<path d="M0.3038487966747898,0.7580183088186255 L0.20256145824298977,0.8164965809277261 " />
			<path d="M-0.5045453229435577,0.40824829046386346 L0.2025614582429902,0.8164965809277268 " />
			<path d="M1.179561864812749,1.2636114844409496 L1.1795618648127488,2.896604646296402 " />
			<path d="M0.3038487966747895,0.7580183088186256 L0.3038487966747893,2.3910114706740777 " />
			<path d="M0.9096682394295367,2.74078148902884 L0.30384879667478937,2.3910114706740773 " />
			<path d="M0.2025614582429894,0.8164965809277263 L0.20256145824298888,6.299147725623995 " />
			<path d="M0.9096682394295369,2.0412414523193148 L0.30384879667478937,2.3910114706740777 " />

       </g>

       <!-- solid lines -->
       <g  stroke="rgb(0,0,0)" fill="none">
			<path d="M-0.5045453229435577,-5.540052697828034 L-0.5045453229435579,-3.382935236154938 " />
			<path d="M0.20256145824298993,-5.948300988291896 L0.2025614582429897,-3.5572857017307347 " />
			<path d="M-0.5045453229435577,-5.540052697828034 L0.20256145824299,-5.948300988291897 " />
			<path d="M-5.656854249492381,-0.40824829046386335 L8.881784197001252e-16,-3.674234614174769 " />
			<path d="M0.0,-3.674234614174768 L5.6568542494923815,-0.4082482904638618 " />
			<path d="M0.9096682394295376,-5.540052697828033 L0.9096682394295373,-3.1490374112668715 " />
			<path d="M0.20256145824298993,-5.948300988291896 L0.9096682394295377,-5.540052697828033 " />
			<path d="M-5.656854249492381,-0.40824829046386335 L-5.656854249492381,0.4082482904638628 " />
			<path d="M-5.656854249492381,0.40824829046386246 L-0.5045453229435575,3.382935236154939 " />
			<path d="M5.656854249492381,-0.40824829046386246 L5.656854249492381,0.4082482904638637 " />
			<path d="M0.9096682394295368,3.149037411266872 L1.5207268628095925,2.796242550567755 " />
			<path d="M2.7507233486556473,2.086103748362241 L5.6568542494923815,0.4082482904638627 " />
			<path d="M0.0,-3.674234614174768 L-7.850462293418876e-17,-2.857738033247042 " />
			<path d="M-5.656854249492381,0.40824829046386246 L8.881784197001252e-16,-2.857738033247043 " />
			<path d="M0.0,-2.857738033247042 L5.6568542494923815,0.40824829046386446 " />
			<path d="M2.4748737341529163,-0.2041241452319314 L2.750723348655647,0.8014155963151035 " />
			<path d="M0.20256145824299,-4.440892098500626e-16 L-0.5045453229435577,0.4082482904638628 " />
			<path d="M0.20256145824298977,4.440892098500626e-16 L0.3416578249232749,0.08030732474616198 " />
			<path d="M0.3416578249232747,0.08030732474616153 L0.7332278127637747,-0.36338599442093766 " />
			<path d="M0.7332278127637746,-0.36338599442093744 L2.4748737341529163,-0.20412414523193148 " />
			<path d="M2.4748737341529163,-0.2041241452319314 L2.4748737341529163,1.428869016623521 " />
			<path d="M2.7507233486556473,0.8014155963151034 L2.7507233486556473,2.4344087581705556 " />
			<path d="M2.4748737341529163,1.4288690166235205 L2.750723348655647,2.434408758170555 " />
			<path d="M2.750723348655647,2.4344087581705556 L1.1795618648127488,2.8966046462964017 " />
			<path d="M1.179561864812749,2.8966046462964017 L0.9096682394295367,2.74078148902884 " />
			<path d="M0.9096682394295368,2.0412414523193148 L0.9096682394295365,5.890899435160133 " />
			<path d="M0.20256145824298888,6.299147725623994 L0.9096682394295366,5.890899435160131 " />
			<path d="M-0.5045453229435582,0.40824829046386313 L-0.5045453229435588,5.890899435160132 " />
			<path d="M-0.5045453229435588,5.890899435160131 L0.20256145824298888,6.299147725623994 " />
			<path d="M0.20256145824298935,8.881784197001252e-16 L0.20256145824298882,5.48265114469627 " />
			<path d="M-0.5045453229435588,5.890899435160131 L0.20256145824298888,5.482651144696268 " />
			<path d="M0.20256145824298882,5.482651144696269 L0.9096682394295366,5.890899435160132 " />
			<path d="M0.3416578249232744,1.7133004866016135 L0.9096682394295368,2.041241452319315 " />
			<path d="M0.3416578249232745,1.713300486601614 L0.3416578249232747,0.08030732474616187 " />
			<path d="M0.7332278127637746,-0.36338599442093744 L0.7332278127637745,1.2696071674345148 " />
			<path d="M0.34165782492327457,1.7133004866016135 L0.7332278127637745,1.2696071674345144 " />
			<path d="M0.7332278127637744,1.2696071674345146 L2.474873734152916,1.4288690166235205 " />

       </g>
    </g>
    
</svg>
